{"title":"18+ Extraction Day 2015 UNRATED Movies HDRip XViD New +Sample â˜»r","uid":11727367,"size":740112518,"categoryP":"video","categoryS":"movies","magnet":"?xt=urn:btih:89635e7c35c5fefa698ad68a852d089d45e1a4fb&amp;dn=18%2B+Extraction+Day+2015+UNRATED+Movies+HDRip+XViD+New+%2BSample+%E2%98%BBr&amp;tr=udp%3A%2F%2Ftracker.openbittorrent.com%3A80&amp;tr=udp%3A%2F%2Fopen.demonii.com%3A1337&amp;tr=udp%3A%2F%2Ftracker.coppersurfer.tk%3A6969&amp;tr=udp%3A%2F%2Fexodus.desync.com%3A6969","seeders":6,"leechers":4,"uploader":"basicssom","files":2,"time":1425130351,"description":"----------------------------------------------------------------\n18+ Extraction Day 2015 UNRATED English Movies HDRip XViD AAC New Source +Sample ~ â˜»rDXâ˜»\n\nSCREEN SHOTS &amp; POSTER:\n &lt;a href=&quot;\nhttp://planethost.co.nr/2015/2/ExtractionDay/11.html&quot; rel=&quot;nofollow&quot; target=&quot;_NEW&quot;&gt;\nhttp://planethost.co.nr/2015/2/ExtractionDay/11.html&lt;/a&gt; &lt;a href=&quot;\nhttp://planethost.co.nr/2015/2/ExtractionDay/1.html&quot; rel=&quot;nofollow&quot; target=&quot;_NEW&quot;&gt;\nhttp://planethost.co.nr/2015/2/ExtractionDay/1.html&lt;/a&gt; &lt;a href=&quot;\nhttp://planethost.co.nr/2015/2/ExtractionDay/2.html&quot; rel=&quot;nofollow&quot; target=&quot;_NEW&quot;&gt;\nhttp://planethost.co.nr/2015/2/ExtractionDay/2.html&lt;/a&gt; &lt;a href=&quot;\nhttp://planethost.co.nr/2015/2/ExtractionDay/3.html&quot; rel=&quot;nofollow&quot; target=&quot;_NEW&quot;&gt;\nhttp://planethost.co.nr/2015/2/ExtractionDay/3.html&lt;/a&gt; &lt;a href=&quot;\nhttp://planethost.co.nr/2015/2/ExtractionDay/4.html&quot; rel=&quot;nofollow&quot; target=&quot;_NEW&quot;&gt;\nhttp://planethost.co.nr/2015/2/ExtractionDay/4.html&lt;/a&gt; &lt;a href=&quot;\nhttp://planethost.co.nr/2015/2/ExtractionDay/5.html&quot; rel=&quot;nofollow&quot; target=&quot;_NEW&quot;&gt;\nhttp://planethost.co.nr/2015/2/ExtractionDay/5.html&lt;/a&gt; &lt;a href=&quot;\nhttp://planethost.co.nr/2015/2/ExtractionDay/6.html&quot; rel=&quot;nofollow&quot; target=&quot;_NEW&quot;&gt;\nhttp://planethost.co.nr/2015/2/ExtractionDay/6.html&lt;/a&gt; &lt;a href=&quot;\nhttp://planethost.co.nr/2015/2/ExtractionDay/7.html&quot; rel=&quot;nofollow&quot; target=&quot;_NEW&quot;&gt;\nhttp://planethost.co.nr/2015/2/ExtractionDay/7.html&lt;/a&gt; &lt;a href=&quot;\nhttp://planethost.co.nr/2015/2/ExtractionDay/8.html&quot; rel=&quot;nofollow&quot; target=&quot;_NEW&quot;&gt;\nhttp://planethost.co.nr/2015/2/ExtractionDay/8.html&lt;/a&gt; &lt;a href=&quot;\nhttp://planethost.co.nr/2015/2/ExtractionDay/9.html&quot; rel=&quot;nofollow&quot; target=&quot;_NEW&quot;&gt;\nhttp://planethost.co.nr/2015/2/ExtractionDay/9.html&lt;/a&gt; &lt;a href=&quot;\nhttp://planethost.co.nr/2015/2/ExtractionDay/10.html&quot; rel=&quot;nofollow&quot; target=&quot;_NEW&quot;&gt;\nhttp://planethost.co.nr/2015/2/ExtractionDay/10.html&lt;/a&gt;\n\nFormat                                   : Matroska\nFormat version                           : Version 4 / Version 2\nFile size                                : 699 MiB\nOverall bit rate                         : 929 Kbps\nMovie name                               : 18+ Extraction Day 2015 UNRATED English Movies HDRip XViD AAC New Source ~ rDX ~\n\nVideo\nID                                       : 1\nFormat                                   : MPEG-4 Visual\nFormat profile                           : Advanced Simple@L5\nFormat settings, BVOP                    : Yes\nFormat settings, QPel                    : No\nFormat settings, GMC                     : No warppoints\nFormat settings, Matrix                  : Default (H.263)\nCodec ID                                 : V_MS/VFW/FOURCC / XVID\nCodec ID/Hint                            : XviD\nBit rate                                 : 783 Kbps\nWidth                                    : 640 pixels\nHeight                                   : 272 pixels\nDisplay aspect ratio                     : 2.35:1\nFrame rate mode                          : Constant\nFrame rate                               : 23.976 fps\nColor space                              : YUV\nChroma subsampling                       : 4:2:0\nBit depth                                : 8 bits\nScan type                                : Progressive\nCompression mode                         : Lossy\nBits/(Pixel*Frame)                       : 0.188\nStream size                              : 589 MiB (84%)\nTitle                                    : ~ rDX ~\nWriting library                          : XviD 64\nDefault                                  : Yes\nForced                                   : No\n\nAudio\nID                                       : 2\nFormat                                   : MPEG Audio\nFormat version                           : Version 1\nFormat profile                           : Layer 3\nMode                                     : Joint stereo\nMode extension                           : MS Stereo\nCodec ID                                 : A_MPEG/L3\nCodec ID/Hint                            : MP3\nBit rate mode                            : Constant\nBit rate                                 : 128 Kbps\nChannel(s)                               : 2 channels\nSampling rate                            : 48.0 KHz\nCompression mode                         : Lossy\nStream size                              : 97.0 MiB (14%)\nTitle                                    : ~ rDX ~\nWriting library                          : LAME3.99r\nEncoding settings                        : -m j -V 4 -q 2 -lowpass 17 -b 128\nDefault                                  : Yes\nForced                                   : No","torrent":{"xt":"urn:btih:89635e7c35c5fefa698ad68a852d089d45e1a4fb","amp;dn":"18%2B+Extraction+Day+2015+UNRATED+Movies+HDRip+XViD+New+%2BSample+%E2%98%BBr","amp;tr":["udp%3A%2F%2Ftracker.openbittorrent.com%3A80","udp%3A%2F%2Fopen.demonii.com%3A1337","udp%3A%2F%2Ftracker.coppersurfer.tk%3A6969","udp%3A%2F%2Fexodus.desync.com%3A6969"],"infoHash":"89635e7c35c5fefa698ad68a852d089d45e1a4fb","infoHashBuffer":{"type":"Buffer","data":[137,99,94,124,53,197,254,250,105,138,214,138,133,45,8,157,69,225,164,251]},"announce":[],"urlList":[]}}